<svg xmlns="http://www.w3.org/2000/svg" width="16" height="16" viewBox="0 0 16 16"><defs><clipPath id="p6mxa"><path fill="#fff" d="M0 1.452C0 .65.65 0 1.452 0h4.204c.802 0 1.452.65 1.452 1.452v4.204c0 .802-.65 1.452-1.452 1.452H1.452C.65 7.108 0 6.458 0 5.656z"/></clipPath><clipPath id="p6mxb"><path fill="#fff" d="M8.29 1.452C8.29.65 8.94 0 9.742 0h4.204c.802 0 1.452.65 1.452 1.452v4.204c0 .802-.65 1.452-1.452 1.452H9.742c-.802 0-1.452-.65-1.452-1.452z"/></clipPath><clipPath id="p6mxc"><path fill="#fff" d="M8.29 9.742c0-.802.65-1.452 1.452-1.452h4.204c.802 0 1.452.65 1.452 1.452v4.204c0 .802-.65 1.452-1.452 1.452H9.742c-.802 0-1.452-.65-1.452-1.452z"/></clipPath><clipPath id="p6mxd"><path fill="#fff" d="M0 9.742C0 8.94.65 8.29 1.452 8.29h4.204c.802 0 1.452.65 1.452 1.452v4.204c0 .802-.65 1.452-1.452 1.452H1.452C.65 15.398 0 14.748 0 13.946z"/></clipPath></defs><g><g><path fill="none" stroke="#e82e90" stroke-miterlimit="50" stroke-width="2.9" d="M0 1.452C0 .65.65 0 1.452 0h4.204c.802 0 1.452.65 1.452 1.452v4.204c0 .802-.65 1.452-1.452 1.452H1.452C.65 7.108 0 6.458 0 5.656z" clip-path="url(&quot;#p6mxa&quot;)"/></g><g><path fill="none" stroke="#e82e90" stroke-miterlimit="50" stroke-width="2.9" d="M8.29 1.452C8.29.65 8.94 0 9.742 0h4.204c.802 0 1.452.65 1.452 1.452v4.204c0 .802-.65 1.452-1.452 1.452H9.742c-.802 0-1.452-.65-1.452-1.452z" clip-path="url(&quot;#p6mxb&quot;)"/></g><g><path fill="none" stroke="#e82e90" stroke-miterlimit="50" stroke-width="2.9" d="M8.29 9.742c0-.802.65-1.452 1.452-1.452h4.204c.802 0 1.452.65 1.452 1.452v4.204c0 .802-.65 1.452-1.452 1.452H9.742c-.802 0-1.452-.65-1.452-1.452z" clip-path="url(&quot;#p6mxc&quot;)"/></g><g><path fill="none" stroke="#e82e90" stroke-miterlimit="50" stroke-width="2.9" d="M0 9.742C0 8.94.65 8.29 1.452 8.29h4.204c.802 0 1.452.65 1.452 1.452v4.204c0 .802-.65 1.452-1.452 1.452H1.452C.65 15.398 0 14.748 0 13.946z" clip-path="url(&quot;#p6mxd&quot;)"/></g></g></svg>