<svg xmlns="http://www.w3.org/2000/svg" width="151" height="36" viewBox="0 0 151 36"><g><g><g><path d="M14.73 2.12c.705 0 1.318-.28 1.894-1.12l.335.205c-.279.914-.39 2.165-.39 3.527 0 1.623.092 2.91.538 7.39h-.241c-1.468-7.67-3.716-10.973-7.45-10.973-3.288 0-6.484 2.146-6.484 5.262 0 2.352 1.096 4.068 3.177 5.038 2.954 1.363 5.276 1.773 8.527 3.453 2.583 1.343 3.753 3.657 3.753 6.008 0 3.807-3.01 7.744-7.84 7.744a9.04 9.04 0 0 1-1.84-.187c-1.783-.373-3.436-1.698-4.83-1.698-.817 0-1.542.41-2.155 1.773l-.334-.168c.279-.915.39-2.146.39-3.527 0-1.642-.092-2.817-.538-7.39h.241c1.189 6.196 3.864 10.208 7.264 10.898.65.13 1.208.187 1.802.187 3.883 0 6.52-2.557 6.52-5.263 0-1.51-.817-3.097-2.73-4.31-2.787-1.772-9.27-3.21-11.203-4.683C1.743 13.222 1 11.188 1 9.117c0-4.422 3.809-8.08 8.416-8.08 2.322 0 3.976 1.083 5.313 1.083z"/><path fill="none" stroke="#000" stroke-miterlimit="50" stroke-width=".69" d="M14.73 2.12c.705 0 1.318-.28 1.894-1.12l.335.205c-.279.914-.39 2.165-.39 3.527 0 1.623.092 2.91.538 7.39h-.241c-1.468-7.67-3.716-10.973-7.45-10.973-3.288 0-6.484 2.146-6.484 5.262 0 2.352 1.096 4.068 3.177 5.038 2.954 1.363 5.276 1.773 8.527 3.453 2.583 1.343 3.753 3.657 3.753 6.008 0 3.807-3.01 7.744-7.84 7.744a9.04 9.04 0 0 1-1.84-.187c-1.783-.373-3.436-1.698-4.83-1.698-.817 0-1.542.41-2.155 1.773l-.334-.168c.279-.915.39-2.146.39-3.527 0-1.642-.092-2.817-.538-7.39h.241c1.189 6.196 3.864 10.208 7.264 10.898.65.13 1.208.187 1.802.187 3.883 0 6.52-2.557 6.52-5.263 0-1.51-.817-3.097-2.73-4.31-2.787-1.772-9.27-3.21-11.203-4.683C1.743 13.222 1 11.188 1 9.117c0-4.422 3.809-8.08 8.416-8.08 2.322 0 3.976 1.083 5.313 1.083z"/></g><g><path d="M25.936 14.959c0-9.666 2.432-13.547 8.503-13.547 6.072 0 8.504 3.88 8.504 13.547 0 4.609-1.225 6.736-6.275 10.878l-1.82 1.512c-.446.392-1.021.56-1.838.56-.576 0-1.17-.075-1.783-.205-3.564-.766-5.291-4.87-5.291-12.745zm21.253 0C47.19 7.084 41.783 1.3 34.445 1.3 27.106 1.3 21.7 7.084 21.7 14.96c0 6.866 3.511 11.661 9.437 12.893.632.13.929.41.929.821 0 .765-.91 1.904-2.898 3.62l-2.787 2.389.056.074 6.298-5.28c.594-.504 1.263-.69 1.97-.69 1.486 0 3.065.802 4.18 1.268 1.318.541 2.507.803 3.64.821 1.04-.019 2.026-.261 2.917-.784 1.524-.895 2.676-2.35 3.79-4.963l-.278-.15c-1.784 1.978-2.713 2.538-4.273 2.538-.687 0-1.486-.149-2.452-.485-1.3-.448-2.36-.634-3.27-.634-1.282 0-2.434.373-4.18 1.343l-.019-.037c3.27-2.65 6.168-4.087 10.516-5.206 1.189-2.053 1.913-4.423 1.913-7.539z"/><path fill="none" stroke="#000" stroke-miterlimit="50" stroke-width=".69" d="M25.936 14.959c0-9.666 2.432-13.547 8.503-13.547 6.072 0 8.504 3.88 8.504 13.547 0 4.609-1.225 6.736-6.275 10.878l-1.82 1.512c-.446.392-1.021.56-1.838.56-.576 0-1.17-.075-1.783-.205-3.564-.766-5.291-4.87-5.291-12.745zm21.253 0C47.19 7.084 41.783 1.3 34.445 1.3 27.106 1.3 21.7 7.084 21.7 14.96c0 6.866 3.511 11.661 9.437 12.893.632.13.929.41.929.821 0 .765-.91 1.904-2.898 3.62l-2.787 2.389.056.074 6.298-5.28c.594-.504 1.263-.69 1.97-.69 1.486 0 3.065.802 4.18 1.268 1.318.541 2.507.803 3.64.821 1.04-.019 2.026-.261 2.917-.784 1.524-.895 2.676-2.35 3.79-4.963l-.278-.15c-1.784 1.978-2.713 2.538-4.273 2.538-.687 0-1.486-.149-2.452-.485-1.3-.448-2.36-.634-3.27-.634-1.282 0-2.434.373-4.18 1.343l-.019-.037c3.27-2.65 6.168-4.087 10.516-5.206 1.189-2.053 1.913-4.423 1.913-7.539z"/></g><g><path d="M55.494 1.706c1.84 0 2.805-.056 6.093-.336v.187c-3.994.56-4.254.727-4.254 2.985V17.25c0 7.762 1.802 10.972 6.52 10.99 5.593.019 8.435-3.396 8.435-10.99V7.23c0-3.77-1.115-5.188-4.254-5.673V1.37c1.542.224 2.805.336 4.31.336 1.505 0 2.768-.112 4.31-.336v.187c-3.14.485-4.254 1.903-4.254 5.672v10.02c0 7.595-2.824 11.121-8.546 11.14-7.06.056-10.2-3.377-10.2-11.14V4.542c0-2.258-.26-2.425-4.254-2.985V1.37c3.289.28 4.255.336 6.094.336z"/><path fill="none" stroke="#000" stroke-miterlimit="50" stroke-width=".69" d="M55.494 1.706c1.84 0 2.805-.056 6.093-.336v.187c-3.994.56-4.254.727-4.254 2.985V17.25c0 7.762 1.802 10.972 6.52 10.99 5.593.019 8.435-3.396 8.435-10.99V7.23c0-3.77-1.115-5.188-4.254-5.673V1.37c1.542.224 2.805.336 4.31.336 1.505 0 2.768-.112 4.31-.336v.187c-3.14.485-4.254 1.903-4.254 5.672v10.02c0 7.595-2.824 11.121-8.546 11.14-7.06.056-10.2-3.377-10.2-11.14V4.542c0-2.258-.26-2.425-4.254-2.985V1.37c3.289.28 4.255.336 6.094.336z"/></g><g><path d="M90.996 16.956zm0 0h-4.774c-2.49 0-3.474-.915-3.474-2.482 0-.71.186-1.53.52-2.482l2.991-8.471zM85.831 2.307l.372 1.026-6.707 19.014c-1.3 3.676-2.842 5.3-5.536 5.673v.186c1.58-.205 2.73-.335 4.292-.335 1.56 0 2.86.13 4.291.335v-.186c-2.266-.373-3.4-1.418-3.4-3.247 0-.858.223-1.735.465-2.426l.241-.69c1.227-3.154 3.214-4.59 6.373-4.59h4.811l2.787 7.892c.167.504.279.896.279 1.232 0 .97-.948 1.306-4.106 1.81v.187c3.288-.299 3.957-.336 6.075-.336 2.118 0 2.824.037 6.112.336v-.187c-3.492-.504-3.752-.896-4.496-3.042L89.343 1.207l-.39-.187c-.111.112-.892.747-3.122 1.288z"/><path fill="none" stroke="#000" stroke-miterlimit="50" stroke-width=".69" d="M90.996 16.956h0zm0 0h-4.774c-2.49 0-3.474-.915-3.474-2.482 0-.71.186-1.53.52-2.482l2.991-8.471zM85.831 2.307l.372 1.026-6.707 19.014c-1.3 3.676-2.842 5.3-5.536 5.673v.186c1.58-.205 2.73-.335 4.292-.335 1.56 0 2.86.13 4.291.335v-.186c-2.266-.373-3.4-1.418-3.4-3.247 0-.858.223-1.735.465-2.426l.241-.69c1.227-3.154 3.214-4.59 6.373-4.59h4.811l2.787 7.892c.167.504.279.896.279 1.232 0 .97-.948 1.306-4.106 1.81v.187c3.288-.299 3.957-.336 6.075-.336 2.118 0 2.824.037 6.112.336v-.187c-3.492-.504-3.752-.896-4.496-3.042L89.343 1.207l-.39-.187c-.111.112-.892.747-3.122 1.288z"/></g><g><path d="M111.243 1.781c1.896-.093 3.478-.205 5.058-.317 2.195-.111 3.795 1.959 3.795 6.268 0 4.309-2.641 7.983-6.231 7.983h-2.622zm9.735 16.72c-3.27-.337-4.998-1.009-5.74-2.259l-.261-.466c4.96-.41 8.49-3.658 8.49-8.042 0-3.937-3.028-6.68-7.171-6.382-1.988.13-3.53.261-5.053.317-.595.02-1.17.038-1.84.038-1.839 0-2.805-.056-6.093-.336v.187c3.994.56 4.254.727 4.254 2.985v20.488c0 2.258-.26 2.426-4.254 2.986v.187c3.288-.28 4.254-.336 6.093-.336 1.84 0 2.806.056 6.094.336v-.187c-3.994-.56-4.254-.728-4.254-2.986v-9.199h2.62c.333 0 .668-.019.984-.037l.297.504.78 1.306c2.118 3.657 2.75 5.43 4.96 8.658 1.264 1.847 3.382 2.762 6.651 3.041v-.186c-1.3-.224-2.396-1.437-3.53-3.956z"/><path fill="none" stroke="#000" stroke-miterlimit="50" stroke-width=".69" d="M111.243 1.781c1.896-.093 3.478-.205 5.058-.317 2.195-.111 3.795 1.959 3.795 6.268 0 4.309-2.641 7.983-6.231 7.983h-2.622zm9.735 16.72c-3.27-.337-4.998-1.009-5.74-2.259l-.261-.466c4.96-.41 8.49-3.658 8.49-8.042 0-3.937-3.028-6.68-7.171-6.382-1.988.13-3.53.261-5.053.317-.595.02-1.17.038-1.84.038-1.839 0-2.805-.056-6.093-.336v.187c3.994.56 4.254.727 4.254 2.985v20.488c0 2.258-.26 2.426-4.254 2.986v.187c3.288-.28 4.254-.336 6.093-.336 1.84 0 2.806.056 6.094.336v-.187c-3.994-.56-4.254-.728-4.254-2.986v-9.199h2.62c.333 0 .668-.019.984-.037l.297.504.78 1.306c2.118 3.657 2.75 5.43 4.96 8.658 1.264 1.847 3.382 2.762 6.651 3.041v-.186c-1.3-.224-2.396-1.437-3.53-3.956z"/></g><g><path d="M134.374 1.709h9.345c2.229 0 4.57-.056 5.759-.709l.334.205c-.297.914-.39 2.165-.39 3.527 0 1.623.093 2.93.539 7.39h-.242C148.27 4.62 146.357 1.82 141.916 1.82h-5.703v12.912h3.233c2.693 0 4.235-1.735 4.718-5.28h.205a60.955 60.955 0 0 0-.205 5.337c0 1.679.038 3.358.205 5.336h-.205c-.483-3.545-2.025-5.28-4.718-5.28h-3.233v12.912h5.703c4.44 0 6.354-2.8 7.803-10.3h.242c-.446 4.46-.539 5.765-.539 7.39 0 1.361.093 2.611.39 3.526l-.334.205c-1.19-.653-3.53-.71-5.76-.71h-9.344c-1.84 0-2.805.057-6.094.337v-.187c3.994-.56 4.254-.728 4.254-2.986V4.545c0-2.257-.26-2.425-4.254-2.985v-.187c3.289.28 4.254.336 6.094.336z"/><path fill="none" stroke="#000" stroke-miterlimit="50" stroke-width=".69" d="M134.374 1.709h9.345c2.229 0 4.57-.056 5.759-.709l.334.205c-.297.914-.39 2.165-.39 3.527 0 1.623.093 2.93.539 7.39h-.242C148.27 4.62 146.357 1.82 141.916 1.82h-5.703v12.912h3.233c2.693 0 4.235-1.735 4.718-5.28h.205a60.955 60.955 0 0 0-.205 5.337c0 1.679.038 3.358.205 5.336h-.205c-.483-3.545-2.025-5.28-4.718-5.28h-3.233v12.912h5.703c4.44 0 6.354-2.8 7.803-10.3h.242c-.446 4.46-.539 5.765-.539 7.39 0 1.361.093 2.611.39 3.526l-.334.205c-1.19-.653-3.53-.71-5.76-.71h-9.344c-1.84 0-2.805.057-6.094.337v-.187c3.994-.56 4.254-.728 4.254-2.986V4.545c0-2.257-.26-2.425-4.254-2.985v-.187c3.289.28 4.254.336 6.094.336z"/></g></g></g></svg>