<svg id="Layer_1" data-name="Layer 1" xmlns="http://www.w3.org/2000/svg" viewBox="0 0 229.48 51.77"><defs><style>.cls-1{fill:#efefef;}</style></defs><title>logoSquare</title><path class="cls-1" d="M32.67,47.87a3.36,3.36,0,0,0,2.92-1.72l.51.32a19.56,19.56,0,0,0-.6,5.41,107,107,0,0,0,.83,11.33H36C33.7,51.45,30.23,46.38,24.48,46.38c-5.06,0-10,3.29-10,8.07a8,8,0,0,0,4.9,7.73c4.55,2.09,8.12,2.72,13.13,5.3a10.16,10.16,0,0,1,5.78,9.21A11.93,11.93,0,0,1,26.23,88.57a14.11,14.11,0,0,1-2.84-.29c-2.74-.57-5.29-2.6-7.44-2.6-1.26,0-2.37.63-3.32,2.72l-.51-.26a19.42,19.42,0,0,0,.6-5.41,108.86,108.86,0,0,0-.83-11.33h.37c1.83,9.5,6,15.65,11.19,16.71a13.69,13.69,0,0,0,2.78.29c6,0,10-3.92,10-8.07,0-2.32-1.26-4.76-4.2-6.62-4.3-2.71-14.29-4.92-17.26-7.18-2.15-1.63-3.29-4.75-3.29-7.93,0-6.78,5.86-12.39,13-12.39C28.06,46.21,30.61,47.87,32.67,47.87Z" transform="translate(-11.52 -46.15)"/><path class="cls-1" d="M79.72,79.12a38.79,38.79,0,0,0-16.2,8l0,.06C66.24,85.68,68,85.11,70,85.11a15.55,15.55,0,0,1,5,1,11.69,11.69,0,0,0,3.77.74c2.41,0,3.84-.86,6.59-3.89l.42.23c-1.71,4-3.49,6.24-5.83,7.61a9,9,0,0,1-4.5,1.2,15.26,15.26,0,0,1-5.61-1.25c-1.71-.72-4.15-2-6.44-2a4.55,4.55,0,0,0-3,1.06l-9.7,8.1-.09-.12,4.29-3.66c3.07-2.63,4.47-4.38,4.47-5.55,0-.63-.46-1.06-1.43-1.26C48.81,85.45,43.4,78.09,43.4,67.56c0-12.08,8.33-21,19.63-21s19.64,8.87,19.64,21A22.08,22.08,0,0,1,79.72,79.12Zm-21.64,8a13.32,13.32,0,0,0,2.75.31,4,4,0,0,0,2.83-.86l2.81-2.31c7.78-6.36,9.67-9.62,9.67-16.69,0-14.82-3.75-20.78-13.11-20.78s-13.1,6-13.1,20.78C49.93,79.64,52.59,85.94,58.08,87.11Z" transform="translate(-11.52 -46.15)"/><path class="cls-1" d="M95.46,47.24a92.69,92.69,0,0,0,9.39-.51V47c-6.15.86-6.56,1.12-6.56,4.58V71.08c0,11.91,2.78,16.83,10,16.86,8.62,0,13-5.21,13-16.86V55.71c0-5.78-1.71-8-6.55-8.7v-.28a43.48,43.48,0,0,0,13.28,0V47c-4.84.75-6.55,2.92-6.55,8.7V71.08c0,11.65-4.35,17.06-13.17,17.09C97.46,88.25,92.63,83,92.63,71.08V51.59c0-3.46-.4-3.72-6.56-4.58v-.28A92.69,92.69,0,0,0,95.46,47.24Z" transform="translate(-11.52 -46.15)"/><path class="cls-1" d="M147,46.18l.6.29L160.46,82.9c1.14,3.29,1.55,3.89,6.93,4.67v.28a80.4,80.4,0,0,0-9.42-.51,79.5,79.5,0,0,0-9.36.51v-.28c4.87-.78,6.33-1.29,6.33-2.78a6.67,6.67,0,0,0-.43-1.89l-4.3-12.11H142.8c-4.86,0-7.93,2.21-9.82,7l-.37,1a11.72,11.72,0,0,0-.71,3.73c0,2.8,1.74,4.4,5.23,5v.28a45.09,45.09,0,0,0-6.61-.51,47.81,47.81,0,0,0-6.61.51V87.6c4.15-.58,6.53-3.07,8.53-8.71l10.33-29.16-.57-1.57C145.63,47.33,146.84,46.35,147,46.18Zm3.15,24.44L142.86,50l-4.61,13a11.92,11.92,0,0,0-.8,3.81c0,2.4,1.52,3.8,5.35,3.8Z" transform="translate(-11.52 -46.15)"/><path class="cls-1" d="M201,83.22c1.74,3.86,3.43,5.72,5.43,6.06v.29c-5-.43-8.3-1.83-10.24-4.67-3.41-5-4.38-7.67-7.64-13.27l-1.21-2-.45-.77c-.49,0-1,.06-1.52.06h-4V83c0,3.46.41,3.72,6.56,4.58v.28a86.7,86.7,0,0,0-18.78,0V87.6c6.16-.86,6.56-1.12,6.56-4.58V51.59c0-3.46-.4-3.72-6.56-4.58v-.28a92.69,92.69,0,0,0,9.39.51c1,0,1.92,0,2.83-.06,2.35-.08,4.73-.28,7.79-.48,6.38-.46,11.05,3.75,11.05,9.78,0,6.73-5.44,11.71-13.08,12.34l.4.72c1.14,1.91,3.8,2.94,8.84,3.46ZM181.35,68.73h4c5.52,0,9.59-5.63,9.59-12.24s-2.46-9.79-5.84-9.62c-2.43.17-4.87.34-7.79.49Z" transform="translate(-11.52 -46.15)"/><path class="cls-1" d="M217,47.24h14.39c3.44,0,7-.08,8.88-1.09l.51.32a18.48,18.48,0,0,0-.6,5.41A106.49,106.49,0,0,0,241,63.21h-.37c-2.23-11.5-5.18-15.8-12-15.8h-8.79V67.22h5c4.15,0,6.53-2.66,7.27-8.1h.32c-.26,3-.32,5.61-.32,8.18s.06,5.16.32,8.19h-.32c-.74-5.44-3.12-8.1-7.27-8.1h-5v19.8h8.79c6.84,0,9.79-4.29,12-15.79H241a106.49,106.49,0,0,0-.83,11.33,18.48,18.48,0,0,0,.6,5.41l-.51.31c-1.84-1-5.44-1.08-8.88-1.08H217a92.56,92.56,0,0,0-9.39.51v-.29c6.15-.85,6.55-1.11,6.55-4.57V51.59c0-3.46-.4-3.72-6.55-4.58v-.28A92.56,92.56,0,0,0,217,47.24Z" transform="translate(-11.52 -46.15)"/></svg>